{
  "source": "C:\\Users\\Peter\\Desktop\\stuff\\MIUN\\quantitative_research\\video_compression\\videos\\BVI-HD\\FishAndRock_1920x1080_30fps.mp4",
  "output": "C:\\Users\\Peter\\Desktop\\stuff\\MIUN\\quantitative_research\\video_compression\\compressed_videos\\BVI-HD\\h264\\12\\FishAndRock_1920x1080_30fps_h264.mp4",
  "codec": "h264",
  "ok": "Input #0, mov,mp4,m4a,3gp,3g2,mj2, from 'C:\\Users\\Peter\\Desktop\\stuff\\MIUN\\quantitative_research\\video_compression\\videos\\BVI-HD\\FishAndRock_1920x1080_30fps.mp4':\n  Metadata:\n    major_brand     : isom\n    minor_version   : 512\n    compatible_brands: isomiso2avc1mp41\n    encoder         : Lavf54.28.101\n  Duration: 00:00:05.00, start: 0.000000, bitrate: 251564 kb/s\n  Stream #0:0[0x1](und): Video: h264 (High 4:4:4 Predictive) (avc1 / 0x31637661), yuv420p(progressive), 1920x1080, 251561 kb/s, 30 fps, 30 tbr, 30 tbn (default)\n    Metadata:\n      handler_name    : VideoHandler\n      vendor_id       : [0][0][0][0]\n[out#0/mp4 @ 000001e411629b40] Codec AVOption b:a (set bitrate (in bits/s)) has not been used for any stream. The most likely reason is either wrong type (e.g. a video option with no video streams) or that it is a private option of some decoder which was not actually used for any stream.\nStream mapping:\n  Stream #0:0 -> #0:0 (h264 (native) -> h264 (libx264))\nPress [q] to stop, [?] for help\n[libx264 @ 000001e4123f75c0] using cpu capabilities: MMX2 SSE2Fast SSSE3 SSE4.2 AVX FMA3 BMI2 AVX2\n[libx264 @ 000001e4123f75c0] profile High, level 5.0, 4:2:0, 8-bit\n[libx264 @ 000001e4123f75c0] 264 - core 165 r3222 b35605a - H.264/MPEG-4 AVC codec - Copyleft 2003-2025 - http://www.videolan.org/x264.html - options: cabac=1 ref=5 deblock=1:0:0 analyse=0x3:0x113 me=hex subme=8 psy=1 psy_rd=1.00:0.00 mixed_ref=1 me_range=16 chroma_me=1 trellis=2 8x8dct=1 cqm=0 deadzone=21,11 fast_pskip=1 chroma_qp_offset=-2 threads=18 lookahead_threads=3 sliced_threads=0 nr=0 decimate=1 interlaced=0 bluray_compat=0 constrained_intra=0 bframes=3 b_pyramid=2 b_adapt=1 b_bias=0 direct=3 weightb=1 open_gop=0 weightp=2 keyint=250 keyint_min=25 scenecut=40 intra_refresh=0 rc_lookahead=50 rc=cbr mbtree=1 bitrate=12000 ratetol=1.0 qcomp=0.60 qpmin=0 qpmax=69 qpstep=4 vbv_maxrate=12000 vbv_bufsize=12000 nal_hrd=none filler=0 ip_ratio=1.40 aq=1:1.00\nOutput #0, mp4, to 'C:\\Users\\Peter\\Desktop\\stuff\\MIUN\\quantitative_research\\video_compression\\compressed_videos\\BVI-HD\\h264\\12\\FishAndRock_1920x1080_30fps_h264.mp4':\n  Metadata:\n    major_brand     : isom\n    minor_version   : 512\n    compatible_brands: isomiso2avc1mp41\n    encoder         : Lavf62.3.100\n  Stream #0:0(und): Video: h264 (avc1 / 0x31637661), yuv420p(tv, progressive), 1920x1080, q=2-31, 12000 kb/s, 30 fps, 15360 tbn (default)\n    Metadata:\n      encoder         : Lavc62.11.100 libx264\n      handler_name    : VideoHandler\n      vendor_id       : [0][0][0][0]\n    Side data:\n      cpb: bitrate max/min/avg: 12000000/0/12000000 buffer size: 12000000 vbv_delay: N/A\nframe=    0 fps=0.0 q=0.0 size=       0KiB time=N/A bitrate=N/A speed=N/A elapsed=0:00:00.51    \nframe=    0 fps=0.0 q=0.0 size=       0KiB time=N/A bitrate=N/A speed=N/A elapsed=0:00:01.09    \nframe=    0 fps=0.0 q=0.0 size=       0KiB time=N/A bitrate=N/A speed=N/A elapsed=0:00:01.62    \nframe=    0 fps=0.0 q=0.0 size=       0KiB time=N/A bitrate=N/A speed=N/A elapsed=0:00:02.14    \nframe=    3 fps=1.1 q=27.0 size=     256KiB time=00:00:00.00 bitrate=N/A speed=   0x elapsed=0:00:02.68    \nframe=   13 fps=4.0 q=25.0 size=     512KiB time=00:00:00.33 bitrate=12584.1kbits/s speed=0.103x elapsed=0:00:03.24    \nframe=   20 fps=5.3 q=24.0 size=     768KiB time=00:00:00.60 bitrate=10486.4kbits/s speed=0.158x elapsed=0:00:03.79    \nframe=   28 fps=6.5 q=23.0 size=    1024KiB time=00:00:00.86 bitrate=9679.6kbits/s speed=0.201x elapsed=0:00:04.32    \nframe=   39 fps=8.0 q=24.0 size=    1536KiB time=00:00:01.23 bitrate=10202.7kbits/s speed=0.254x elapsed=0:00:04.85    \nframe=   43 fps=7.9 q=24.0 size=    1792KiB time=00:00:01.36 bitrate=10741.8kbits/s speed=0.252x elapsed=0:00:05.41    \nframe=   52 fps=8.8 q=24.0 size=    2048KiB time=00:00:01.66 bitrate=10066.6kbits/s speed=0.281x elapsed=0:00:05.93    \nframe=   63 fps=9.7 q=25.0 size=    2560KiB time=00:00:02.03 bitrate=10314.1kbits/s speed=0.315x elapsed=0:00:06.46    \nframe=   71 fps= 10 q=25.0 size=    2816KiB time=00:00:02.30 bitrate=10030.0kbits/s speed=0.329x elapsed=0:00:06.98    \nframe=   82 fps= 11 q=25.0 size=    3328KiB time=00:00:02.66 bitrate=10223.8kbits/s speed=0.355x elapsed=0:00:07.50    \nframe=   90 fps= 11 q=25.0 size=    3840KiB time=00:00:02.86 bitrate=10973.6kbits/s speed=0.357x elapsed=0:00:08.03    \nframe=  102 fps= 12 q=25.0 size=    4352KiB time=00:00:03.33 bitrate=10695.6kbits/s speed=0.389x elapsed=0:00:08.56    \nframe=  107 fps= 12 q=25.0 size=    4608KiB time=00:00:03.50 bitrate=10785.5kbits/s speed=0.385x elapsed=0:00:09.08    \nframe=  118 fps= 12 q=25.0 size=    5120KiB time=00:00:03.86 bitrate=10847.4kbits/s speed=0.403x elapsed=0:00:09.59    \nframe=  126 fps= 12 q=25.0 size=    5376KiB time=00:00:04.13 bitrate=10655.0kbits/s speed=0.409x elapsed=0:00:10.11    \nframe=  134 fps= 13 q=-1.0 size=    5888KiB time=00:00:04.40 bitrate=10962.5kbits/s speed=0.414x elapsed=0:00:10.64    \n[mp4 @ 000001e4116315c0] Starting second pass: moving the moov atom to the beginning of the file\n[out#0/mp4 @ 000001e411629b40] video:6718KiB audio:0KiB subtitle:0KiB other streams:0KiB global headers:0KiB muxing overhead: 0.039234%\nframe=  150 fps= 13 q=-1.0 Lsize=    6721KiB time=00:00:04.93 bitrate=11160.0kbits/s speed=0.443x elapsed=0:00:11.13    \n[libx264 @ 000001e4123f75c0] frame I:1     Avg QP:19.25  size:262490\n[libx264 @ 000001e4123f75c0] frame P:39    Avg QP:20.62  size:113987\n[libx264 @ 000001e4123f75c0] frame B:110   Avg QP:24.07  size: 19732\n[libx264 @ 000001e4123f75c0] consecutive B-frames:  1.3%  0.0%  8.0% 90.7%\n[libx264 @ 000001e4123f75c0] mb I  I16..4:  8.3% 82.5%  9.1%\n[libx264 @ 000001e4123f75c0] mb P  I16..4:  0.9%  4.4%  0.7%  P16..4: 46.0% 32.6% 14.6%  0.0%  0.0%    skip: 0.9%\n[libx264 @ 000001e4123f75c0] mb B  I16..4:  0.1%  0.3%  0.0%  B16..8: 56.2%  6.0%  1.2%  direct: 5.2%  skip:31.0%  L0:39.7% L1:41.8% BI:18.5%\n[libx264 @ 000001e4123f75c0] 8x8 transform intra:76.9% inter:66.6%\n[libx264 @ 000001e4123f75c0] direct mvs  spatial:92.7% temporal:7.3%\n[libx264 @ 000001e4123f75c0] coded y,uvDC,uvAC intra: 81.2% 91.2% 54.6% inter: 28.8% 39.0% 1.9%\n[libx264 @ 000001e4123f75c0] i16 v,h,dc,p: 13% 20% 34% 32%\n[libx264 @ 000001e4123f75c0] i8 v,h,dc,ddl,ddr,vr,hd,vl,hu: 18%  7%  7%  7% 14% 11% 15%  9% 13%\n[libx264 @ 000001e4123f75c0] i4 v,h,dc,ddl,ddr,vr,hd,vl,hu: 13%  6%  4%  8% 15% 13% 17% 10% 15%\n[libx264 @ 000001e4123f75c0] i8c dc,h,v,p: 46% 23% 17% 14%\n[libx264 @ 000001e4123f75c0] Weighted P-Frames: Y:35.9% UV:15.4%\n[libx264 @ 000001e4123f75c0] ref P L0: 55.3% 19.8% 15.7%  4.7%  3.7%  0.8%  0.0%\n[libx264 @ 000001e4123f75c0] ref B L0: 93.4%  5.1%  1.2%  0.3%\n[libx264 @ 000001e4123f75c0] ref B L1: 98.6%  1.4%\n[libx264 @ 000001e4123f75c0] kb/s:11005.65\n",
  "seconds": 11.562541007995605,
  "probe_out": {}
}